<!-- Generated by IcoMoon.io -->
<svg version="1.1" xmlns="http://www.w3.org/2000/svg" width="100" height="100" viewBox="0 0 100 100">
<title>cart</title>
<path fill="#26a2ff" d="M37.5 90.625c0 5.178-4.197 9.375-9.375 9.375s-9.375-4.197-9.375-9.375c0-5.178 4.197-9.375 9.375-9.375s9.375 4.197 9.375 9.375z"></path>
<path fill="#26a2ff" d="M100 90.625c0 5.178-4.197 9.375-9.375 9.375s-9.375-4.197-9.375-9.375c0-5.178 4.197-9.375 9.375-9.375s9.375 4.197 9.375 9.375z"></path>
<path fill="#26a2ff" d="M100 50v-37.5h-75c0-3.452-2.798-6.25-6.25-6.25h-18.75v6.25h12.5l4.695 40.24c-2.861 2.291-4.695 5.811-4.695 9.76 0 6.904 5.596 12.5 12.5 12.5h75v-6.25h-75c-3.452 0-6.25-2.798-6.25-6.25 0-0.021 0.001-0.043 0.002-0.064l81.248-12.436z"></path>
</svg>
