<!-- Generated by IcoMoon.io -->
<svg version="1.1" xmlns="http://www.w3.org/2000/svg" width="100" height="100" viewBox="0 0 100 100">
<title>search</title>
<path fill="#26a2ff" d="M96.901 85.097l-23.687-20.146c-2.449-2.204-5.067-3.215-7.183-3.118 5.591-6.55 8.969-15.047 8.969-24.334 0-20.711-16.789-37.5-37.5-37.5s-37.5 16.789-37.5 37.5 16.789 37.5 37.5 37.5c9.287 0 17.784-3.378 24.334-8.969-0.098 2.115 0.914 4.734 3.118 7.183l20.146 23.687c3.449 3.833 9.084 4.156 12.521 0.718s3.114-9.072-0.718-12.521zM37.5 62.5c-13.807 0-25-11.193-25-25s11.193-25 25-25 25 11.193 25 25-11.193 25-25 25z"></path>
</svg>
