<svg aria-hidden="true" style="position: absolute; width: 0; height: 0; overflow: hidden;" version="1.1" xmlns="http://www.w3.org/2000/svg" xmlns:xlink="http://www.w3.org/1999/xlink">
<defs>
<symbol id="icon-home" viewBox="0 0 100 100">
<title>home</title>
<path d="M100 57.661l-50-38.811-50 38.811v-15.824l50-38.811 50 38.811zM87.5 56.25v37.5h-25v-25h-25v25h-25v-37.5l37.5-28.125z"></path>
</symbol>
<symbol id="icon-cart" viewBox="0 0 100 100">
<title>cart</title>
<path d="M37.5 90.625c0 5.178-4.197 9.375-9.375 9.375s-9.375-4.197-9.375-9.375c0-5.178 4.197-9.375 9.375-9.375s9.375 4.197 9.375 9.375z"></path>
<path d="M100 90.625c0 5.178-4.197 9.375-9.375 9.375s-9.375-4.197-9.375-9.375c0-5.178 4.197-9.375 9.375-9.375s9.375 4.197 9.375 9.375z"></path>
<path d="M100 50v-37.5h-75c0-3.452-2.798-6.25-6.25-6.25h-18.75v6.25h12.5l4.695 40.24c-2.861 2.291-4.695 5.811-4.695 9.76 0 6.904 5.596 12.5 12.5 12.5h75v-6.25h-75c-3.452 0-6.25-2.798-6.25-6.25 0-0.021 0.001-0.043 0.002-0.064l81.248-12.436z"></path>
</symbol>
<symbol id="icon-user" viewBox="0 0 100 100">
<title>user</title>
<path d="M56.25 69.005v-5.154c6.885-3.88 12.5-13.552 12.5-23.226 0-15.533 0-28.125-18.75-28.125s-18.75 12.592-18.75 28.125c0 9.674 5.615 19.346 12.5 23.226v5.154c-21.201 1.733-37.5 12.15-37.5 24.745h87.5c0-12.595-16.299-23.012-37.5-24.745z"></path>
</symbol>
<symbol id="icon-search" viewBox="0 0 100 100">
<title>search</title>
<path d="M96.901 85.097l-23.687-20.146c-2.449-2.204-5.067-3.215-7.183-3.118 5.591-6.55 8.969-15.047 8.969-24.334 0-20.711-16.789-37.5-37.5-37.5s-37.5 16.789-37.5 37.5 16.789 37.5 37.5 37.5c9.287 0 17.784-3.378 24.334-8.969-0.098 2.115 0.914 4.734 3.118 7.183l20.146 23.687c3.449 3.833 9.084 4.156 12.521 0.718s3.114-9.072-0.718-12.521zM37.5 62.5c-13.807 0-25-11.193-25-25s11.193-25 25-25 25 11.193 25 25-11.193 25-25 25z"></path>
</symbol>
</defs>
</svg>
